<?xml version="1.0" encoding="UTF-8" standalone="no"?>
<!DOCTYPE svg PUBLIC "-//W3C//DTD SVG 1.1//EN" "http://www.w3.org/Graphics/SVG/1.1/DTD/svg11.dtd">
<svg width="100%" height="100%" viewBox="0 0 512 512" version="1.1" xmlns="http://www.w3.org/2000/svg" xmlns:xlink="http://www.w3.org/1999/xlink" xml:space="preserve" xmlns:serif="http://www.serif.com/" style="fill-rule:evenodd;clip-rule:evenodd;stroke-linejoin:round;stroke-miterlimit:2;">
    <g transform="matrix(-6.12323e-17,1,1,6.12323e-17,-16,1.06581e-14)">
        <path d="M270.1,480L368.02,480C447.4,480 512,417.1 512,339.7L512,231.8C512,208.35 505.894,185.07 494.34,164.47L462.99,108.62C447.5,81.1 417.1,64 385.9,64L338.93,64C312.3,64 287.37,75.63 270.53,95.93L255.07,114.64L127.3,68.44C119,65.46 110.5,64.05 102.1,64.05C72.08,64.05 43.73,82.11 32.69,111.14C15.06,156.8 46.19,194 76.75,204.9L78.896,205.664L68.79,206.4C30.21,209 -0,241.2 -0,279.3C-0,319 33.27,351.39 73.92,351.39C75.665,351.39 77.421,351.33 79.188,351.207L167.978,345.072L167.978,353.213C167.978,375.323 178.528,396.323 196.028,409.953C197.4,448.8 230.2,480 270.1,480ZM269.1,432C254.76,432 243.1,420.97 243.1,407.38C243.1,407.38 243.14,393.07 243.14,392.67C243.14,385.776 239.038,378.47 232.47,376.28C222.08,372.78 215.09,363.5 215.09,353.22L215.09,339.69C215.09,322.71 228.79,323.29 228.79,309.8C228.79,300.717 221.398,293.84 212.83,293.84C212.466,293.84 212.099,293.853 211.731,293.878C211.731,293.878 73.631,303.383 73.031,303.383C58.711,303.383 47.101,292.343 47.101,278.893C47.101,265.613 57.801,255.153 71.201,254.253L234.401,242.973C237.075,242.785 249.321,240.066 249.321,226.793C249.321,220.118 245.037,214.213 238.671,211.943L92.84,159.7C85.39,156.1 75.97,149.4 75.97,136.7C75.97,125.56 85.219,112.04 101.94,112.04C104.983,112.04 108.081,112.552 111.106,113.63L345.206,198.66C347.007,199.318 348.85,199.63 350.662,199.63C359.622,199.63 366.662,192.254 366.662,184.53C366.662,178.016 362.594,171.84 356.072,169.49L291.262,146.02L306.602,127.46C315.2,117.3 326.6,112 338.9,112L385.87,112C400.64,112 414.15,119.719 421.14,132.16L452.5,188C460.031,201.41 464.02,216.56 464.02,231.81L464.02,339.71C464.02,390.62 420.96,432.02 368.02,432.02L269.1,432.02L269.1,432Z" style="fill-rule:nonzero;"/>
    </g>
</svg>
